<svg width="24" height="25" viewBox="0 0 24 25" fill="none" xmlns="http://www.w3.org/2000/svg">
<path d="M12 22.7695C6.07 22.7695 1.25 17.9495 1.25 12.0195C1.25 6.08953 6.07 1.26953 12 1.26953C17.93 1.26953 22.75 6.08953 22.75 12.0195C22.75 17.9495 17.93 22.7695 12 22.7695ZM12 2.76953C6.9 2.76953 2.75 6.91953 2.75 12.0195C2.75 17.1195 6.9 21.2695 12 21.2695C17.1 21.2695 21.25 17.1195 21.25 12.0195C21.25 6.91953 17.1 2.76953 12 2.76953Z" fill="#9D9EA7"/>
<path d="M12 13.7695C11.59 13.7695 11.25 13.4295 11.25 13.0195V8.01953C11.25 7.60953 11.59 7.26953 12 7.26953C12.41 7.26953 12.75 7.60953 12.75 8.01953V13.0195C12.75 13.4295 12.41 13.7695 12 13.7695Z" fill="#9D9EA7"/>
<path d="M12 17.0194C11.87 17.0194 11.74 16.9894 11.62 16.9394C11.5 16.8894 11.39 16.8194 11.29 16.7294C11.2 16.6294 11.13 16.5294 11.08 16.3994C11.03 16.2794 11 16.1494 11 16.0194C11 15.8894 11.03 15.7594 11.08 15.6394C11.13 15.5194 11.2 15.4094 11.29 15.3094C11.39 15.2194 11.5 15.1494 11.62 15.0994C11.86 14.9994 12.14 14.9994 12.38 15.0994C12.5 15.1494 12.61 15.2194 12.71 15.3094C12.8 15.4094 12.87 15.5194 12.92 15.6394C12.97 15.7594 13 15.8894 13 16.0194C13 16.1494 12.97 16.2794 12.92 16.3994C12.87 16.5294 12.8 16.6294 12.71 16.7294C12.61 16.8194 12.5 16.8894 12.38 16.9394C12.26 16.9894 12.13 17.0194 12 17.0194Z" fill="#9D9EA7"/>
</svg>
