<svg width="15" height="13" viewBox="0 0 15 13" fill="none" xmlns="http://www.w3.org/2000/svg">
<path d="M7.70027 1.07691C7.59606 1.1815 7.53754 1.32313 7.53754 1.47077C7.53754 1.61841 7.59606 1.76004 7.70027 1.86463L12.6083 6.77266C13.124 7.29155 13.4229 7.98733 13.4441 8.71861C13.451 9.46511 13.1622 10.184 12.6408 10.7183L12.2972 11.062C12.0304 11.3158 11.7157 11.514 11.3715 11.645C11.0274 11.776 10.6606 11.8371 10.2925 11.8249C9.54962 11.8301 8.83371 11.5467 8.29566 11.0344L1.96422 4.70296C1.77796 4.51479 1.63219 4.2905 1.53587 4.04388C1.43956 3.79726 1.39475 3.53353 1.40419 3.26894C1.41893 2.72458 1.6422 2.20667 2.02786 1.8222C2.21198 1.63433 2.43157 1.4849 2.6739 1.38255C2.91622 1.28021 3.17646 1.22701 3.43951 1.22602C3.70255 1.22503 3.96318 1.27629 4.20626 1.37681C4.44935 1.47733 4.67006 1.62512 4.85558 1.8116L10.7684 7.72442C10.9761 7.92312 11.1 8.19359 11.115 8.4806C11.13 8.7676 11.0348 9.0495 10.849 9.26874C10.6313 9.45288 10.3505 9.54526 10.066 9.52639C9.78142 9.50753 9.51532 9.3789 9.32379 9.16763L5.9516 5.79543C5.84714 5.69098 5.70546 5.63229 5.55774 5.63229C5.41001 5.63229 5.26834 5.69098 5.16388 5.79544C5.05942 5.89989 5.00074 6.04157 5.00074 6.18929C5.00074 6.33702 5.05942 6.47869 5.16388 6.58315L8.53678 9.95605C8.82855 10.2712 9.20831 10.4913 9.62677 10.5879C10.0452 10.6845 10.4831 10.6531 10.8834 10.4977C11.2838 10.3424 11.6282 10.0703 11.872 9.71668C12.1158 9.36311 12.2477 8.94442 12.2505 8.51497C12.2373 7.91767 11.9875 7.35003 11.5561 6.93671L5.6433 1.02388C5.3527 0.73402 5.00778 0.504328 4.62829 0.347954C4.2488 0.19158 3.84219 0.111596 3.43174 0.112581C3.0213 0.113566 2.61508 0.195501 2.23634 0.353695C1.85761 0.511889 1.51379 0.743234 1.22459 1.03448C0.932135 1.32447 0.699727 1.66927 0.540659 2.04917C0.381592 2.42906 0.298987 2.83659 0.297571 3.24844C0.293266 3.6599 0.371453 4.06805 0.527515 4.44879C0.683576 4.82954 0.914349 5.17515 1.2062 5.46522L7.53764 11.7966C8.28242 12.5296 9.28503 12.9412 10.33 12.9429C11.3507 12.9461 12.3311 12.5449 13.0566 11.8271L13.4003 11.4834C14.1108 10.7538 14.5077 9.7752 14.5062 8.7568C14.5098 8.25204 14.4182 7.75112 14.2361 7.28036C14.0493 6.7987 13.7647 6.36099 13.4003 5.99484L8.48516 1.07974C8.43401 1.02766 8.37304 0.986238 8.30578 0.957877C8.23852 0.929516 8.1663 0.914778 8.09331 0.914514C8.02031 0.914251 7.94799 0.92847 7.88052 0.956345C7.81306 0.984221 7.75179 1.0252 7.70027 1.07691Z" fill="#1E2029"/>
</svg>
