<svg width="18" height="16" viewBox="0 0 18 16" fill="none" xmlns="http://www.w3.org/2000/svg">
<path d="M14.076 16.0002H3.924C2.89051 16.0066 1.89674 15.6025 1.16099 14.8766C0.425237 14.1508 0.00766533 13.1627 0 12.1292L0 6.85417C0.00766533 5.82069 0.425237 4.83251 1.16099 4.10669C1.89674 3.38088 2.89051 2.97678 3.924 2.98317C3.96069 2.98586 3.99732 2.97711 4.02884 2.95813C4.06035 2.93915 4.08522 2.91086 4.1 2.87717L4.153 2.77117L4.228 2.61517C4.463 2.12617 4.728 1.57317 4.891 1.25217C5.06918 0.876804 5.35039 0.559812 5.70183 0.338144C6.05328 0.116477 6.46049 -0.000734722 6.876 0.000171246H11.115C11.5329 -0.00262212 11.9429 0.113644 12.297 0.335364C12.6512 0.557085 12.9349 0.875091 13.115 1.25217C13.257 1.53217 13.472 1.98117 13.68 2.41517L13.808 2.68217L13.899 2.88217C13.9163 2.91471 13.9423 2.94183 13.9741 2.96054C14.0058 2.97924 14.0421 2.98881 14.079 2.98817C15.1111 2.98257 16.1034 3.38634 16.8383 4.11099C17.5733 4.83564 17.991 5.82208 18 6.85417V12.1282C17.9926 13.1618 17.5751 14.1503 16.8394 14.8763C16.1036 15.6023 15.1097 16.0066 14.076 16.0002ZM9 5.69117C8.05966 5.68859 7.15666 6.059 6.489 6.72117C6.16184 7.04152 5.90243 7.42437 5.72617 7.84697C5.54991 8.26957 5.46042 8.7233 5.463 9.18117C5.46407 9.64083 5.55627 10.0957 5.73427 10.5195C5.91227 10.9433 6.17253 11.3276 6.5 11.6502C7.16784 12.3041 8.06533 12.6702 9 12.6702C9.93334 12.673 10.8298 12.3059 11.493 11.6492C11.8224 11.3283 12.0844 10.9448 12.2635 10.5212C12.4426 10.0976 12.5351 9.64253 12.5358 9.18265C12.5365 8.72277 12.4452 8.2674 12.2673 7.84331C12.0894 7.41922 11.8285 7.03498 11.5 6.71317C10.8347 6.05523 9.93571 5.68774 9 5.69117ZM14.049 5.47817C13.892 5.48211 13.7397 5.53215 13.611 5.62206C13.4822 5.71197 13.3828 5.83777 13.3251 5.9838C13.2673 6.12982 13.2539 6.2896 13.2863 6.44323C13.3188 6.59686 13.3957 6.73755 13.5075 6.84776C13.6194 6.95797 13.7612 7.03283 13.9153 7.06301C14.0694 7.09318 14.2289 7.07735 14.3741 7.01747C14.5193 6.9576 14.6436 6.85633 14.7316 6.72629C14.8196 6.59625 14.8674 6.44318 14.869 6.28617C14.8687 6.17912 14.8473 6.07319 14.8058 5.97449C14.7644 5.87579 14.7038 5.78628 14.6275 5.71115C14.5513 5.63601 14.4609 5.57674 14.3616 5.53675C14.2623 5.49676 14.156 5.47685 14.049 5.47817ZM9 11.3382C8.42094 11.3414 7.86425 11.1148 7.452 10.7082C7.24893 10.5092 7.08777 10.2716 6.97802 10.0093C6.86827 9.74706 6.81216 9.46547 6.813 9.18117V9.17217C6.80954 8.89083 6.86365 8.61175 6.97199 8.35208C7.08033 8.09241 7.24061 7.85763 7.443 7.66217C7.85595 7.25566 8.4117 7.02707 8.99116 7.02538C9.57063 7.0237 10.1277 7.24906 10.543 7.65317C10.7459 7.85224 10.907 8.08989 11.0167 8.35212C11.1265 8.61436 11.1827 8.8959 11.182 9.18017C11.1746 9.75438 10.9416 10.3026 10.5333 10.7064C10.125 11.1102 9.57425 11.3372 9 11.3382Z" fill="#1E2029"/>
</svg>
