<svg width="43" height="43" viewBox="0 0 43 43" fill="none" xmlns="http://www.w3.org/2000/svg">
<path d="M19.633 21.6834C19.608 21.6834 19.5913 21.6834 19.5663 21.6834C19.5247 21.675 19.4663 21.675 19.4163 21.6834C16.9997 21.6084 15.1747 19.7084 15.1747 17.3667C15.1747 14.9834 17.1163 13.0417 19.4997 13.0417C21.883 13.0417 23.8247 14.9834 23.8247 17.3667C23.8163 19.7084 21.983 21.6084 19.658 21.6834C19.6497 21.6834 19.6413 21.6834 19.633 21.6834ZM19.4997 14.2917C17.808 14.2917 16.4247 15.675 16.4247 17.3667C16.4247 19.0334 17.7247 20.375 19.383 20.4334C19.433 20.425 19.5413 20.425 19.6497 20.4334C21.283 20.3584 22.5663 19.0167 22.5747 17.3667C22.5747 15.675 21.1913 14.2917 19.4997 14.2917Z" fill="#9D9EA7"/>
<path d="M25.783 21.7916C25.758 21.7916 25.733 21.7916 25.708 21.7833C25.3663 21.8166 25.0163 21.575 24.983 21.2333C24.9496 20.8916 25.158 20.5833 25.4996 20.5416C25.5996 20.5333 25.708 20.5333 25.7996 20.5333C27.0163 20.4666 27.9663 19.4666 27.9663 18.2416C27.9663 16.975 26.9413 15.95 25.6746 15.95C25.333 15.9583 25.0496 15.675 25.0496 15.3333C25.0496 14.9916 25.333 14.7083 25.6746 14.7083C27.6246 14.7083 29.2163 16.3 29.2163 18.25C29.2163 20.1666 27.7163 21.7166 25.808 21.7916C25.7996 21.7916 25.7913 21.7916 25.783 21.7916Z" fill="#9D9EA7"/>
<path d="M19.6413 30.7916C18.008 30.7916 16.3663 30.375 15.1247 29.5416C13.9663 28.775 13.333 27.725 13.333 26.5833C13.333 25.4416 13.9663 24.3833 15.1247 23.6083C17.6247 21.95 21.6747 21.95 24.158 23.6083C25.308 24.375 25.9497 25.425 25.9497 26.5666C25.9497 27.7083 25.3163 28.7666 24.158 29.5416C22.908 30.375 21.2747 30.7916 19.6413 30.7916ZM15.8163 24.6583C15.0163 25.1916 14.583 25.875 14.583 26.5916C14.583 27.3 15.0247 27.9833 15.8163 28.5083C17.8913 29.9 21.3913 29.9 23.4663 28.5083C24.2663 27.975 24.6997 27.2916 24.6997 26.575C24.6997 25.8666 24.258 25.1833 23.4663 24.6583C21.3913 23.275 17.8913 23.275 15.8163 24.6583Z" fill="#9D9EA7"/>
<path d="M27.283 29.2917C26.9913 29.2917 26.733 29.0917 26.6746 28.7917C26.608 28.45 26.8246 28.125 27.158 28.05C27.683 27.9417 28.1663 27.7333 28.5413 27.4417C29.0163 27.0833 29.2746 26.6333 29.2746 26.1583C29.2746 25.6833 29.0163 25.2333 28.5496 24.8833C28.183 24.6 27.7246 24.4 27.183 24.275C26.8496 24.2 26.633 23.8667 26.708 23.525C26.783 23.1917 27.1163 22.975 27.458 23.05C28.1746 23.2083 28.7996 23.4917 29.308 23.8833C30.083 24.4667 30.5246 25.2917 30.5246 26.1583C30.5246 27.025 30.0746 27.85 29.2996 28.4417C28.783 28.8417 28.133 29.1333 27.4163 29.275C27.3663 29.2917 27.3246 29.2917 27.283 29.2917Z" fill="#9D9EA7"/>
</svg>
