<svg width="43" height="43" viewBox="0 0 43 43" fill="none" xmlns="http://www.w3.org/2000/svg">
<circle opacity="0.1" cx="21.5" cy="21.5" r="21.5" fill="#777FFE"/>
<path d="M19.5 13.6667C17.3166 13.6667 15.5416 15.4417 15.5416 17.625C15.5416 19.7667 17.2166 21.5 19.4 21.575C19.4666 21.5667 19.5333 21.5667 19.5833 21.575C19.6 21.575 19.6083 21.575 19.625 21.575C19.6333 21.575 19.6333 21.575 19.6416 21.575C21.775 21.5 23.45 19.7667 23.4583 17.625C23.4583 15.4417 21.6833 13.6667 19.5 13.6667Z" fill="#777FFE"/>
<path d="M23.7333 23.7917C21.4083 22.2417 17.6166 22.2417 15.275 23.7917C14.2166 24.5 13.6333 25.4583 13.6333 26.4833C13.6333 27.5083 14.2166 28.4583 15.2666 29.1583C16.4333 29.9417 17.9666 30.3333 19.5 30.3333C21.0333 30.3333 22.5666 29.9417 23.7333 29.1583C24.7833 28.45 25.3666 27.5 25.3666 26.4667C25.3583 25.4417 24.7833 24.4917 23.7333 23.7917Z" fill="#777FFE"/>
<path d="M28.6583 18.1166C28.7916 19.7333 27.6416 21.15 26.05 21.3416C26.0416 21.3416 26.0416 21.3416 26.0333 21.3416H26.0083C25.9583 21.3416 25.9083 21.3416 25.8666 21.3583C25.0583 21.4 24.3166 21.1416 23.7583 20.6666C24.6166 19.9 25.1083 18.75 25.0083 17.5C24.95 16.825 24.7166 16.2083 24.3666 15.6833C24.6833 15.525 25.05 15.425 25.425 15.3916C27.0583 15.25 28.5166 16.4666 28.6583 18.1166Z" fill="#777FFE"/>
<path d="M30.325 25.825C30.2583 26.6333 29.7417 27.3333 28.875 27.8083C28.0417 28.2667 26.9917 28.4833 25.95 28.4583C26.55 27.9167 26.9 27.2417 26.9667 26.525C27.05 25.4917 26.5583 24.5 25.575 23.7083C25.0167 23.2667 24.3667 22.9167 23.6583 22.6583C25.5 22.125 27.8167 22.4833 29.2417 23.6333C30.0083 24.25 30.4 25.025 30.325 25.825Z" fill="#777FFE"/>
</svg>
