<svg width="43" height="43" viewBox="0 0 43 43" fill="none" xmlns="http://www.w3.org/2000/svg">
<path d="M14.5 16C15.3284 16 16 15.3284 16 14.5C16 13.6716 15.3284 13 14.5 13C13.6716 13 13 13.6716 13 14.5C13 15.3284 13.6716 16 14.5 16Z" fill="#9D9EA7"/>
<path d="M21.5 16C22.3284 16 23 15.3284 23 14.5C23 13.6716 22.3284 13 21.5 13C20.6716 13 20 13.6716 20 14.5C20 15.3284 20.6716 16 21.5 16Z" fill="#9D9EA7"/>
<path d="M28.5 16C29.3284 16 30 15.3284 30 14.5C30 13.6716 29.3284 13 28.5 13C27.6716 13 27 13.6716 27 14.5C27 15.3284 27.6716 16 28.5 16Z" fill="#9D9EA7"/>
<path d="M14.5 23C15.3284 23 16 22.3284 16 21.5C16 20.6716 15.3284 20 14.5 20C13.6716 20 13 20.6716 13 21.5C13 22.3284 13.6716 23 14.5 23Z" fill="#9D9EA7"/>
<path d="M21.5 23C22.3284 23 23 22.3284 23 21.5C23 20.6716 22.3284 20 21.5 20C20.6716 20 20 20.6716 20 21.5C20 22.3284 20.6716 23 21.5 23Z" fill="#9D9EA7"/>
<path d="M28.5 23C29.3284 23 30 22.3284 30 21.5C30 20.6716 29.3284 20 28.5 20C27.6716 20 27 20.6716 27 21.5C27 22.3284 27.6716 23 28.5 23Z" fill="#9D9EA7"/>
<path d="M14.5 30C15.3284 30 16 29.3284 16 28.5C16 27.6716 15.3284 27 14.5 27C13.6716 27 13 27.6716 13 28.5C13 29.3284 13.6716 30 14.5 30Z" fill="#9D9EA7"/>
<path d="M21.5 30C22.3284 30 23 29.3284 23 28.5C23 27.6716 22.3284 27 21.5 27C20.6716 27 20 27.6716 20 28.5C20 29.3284 20.6716 30 21.5 30Z" fill="#9D9EA7"/>
<path d="M28.5 30C29.3284 30 30 29.3284 30 28.5C30 27.6716 29.3284 27 28.5 27C27.6716 27 27 27.6716 27 28.5C27 29.3284 27.6716 30 28.5 30Z" fill="#9D9EA7"/>
</svg>
