<svg width="43" height="43" viewBox="0 0 43 43" fill="none" xmlns="http://www.w3.org/2000/svg">
<path d="M26.825 30.9583H17.175C14.8916 30.9583 13.0416 29.1 13.0416 26.8167V20.6417C13.0416 19.5083 13.7416 18.0833 14.6416 17.3833L19.1333 13.8833C20.4833 12.8333 22.6416 12.7833 24.0416 13.7667L29.1916 17.375C30.1833 18.0667 30.9583 19.55 30.9583 20.7583V26.825C30.9583 29.1 29.1083 30.9583 26.825 30.9583ZM19.9 14.8667L15.4083 18.3667C14.8166 18.8333 14.2916 19.8917 14.2916 20.6417V26.8167C14.2916 28.4083 15.5833 29.7083 17.175 29.7083H26.825C28.4166 29.7083 29.7083 28.4167 29.7083 26.825V20.7583C29.7083 19.9583 29.1333 18.85 28.475 18.4L23.325 14.7917C22.375 14.125 20.8083 14.1583 19.9 14.8667Z" fill="#9D9EA7"/>
<path d="M22 27.625C21.6583 27.625 21.375 27.3417 21.375 27V24.5C21.375 24.1583 21.6583 23.875 22 23.875C22.3417 23.875 22.625 24.1583 22.625 24.5V27C22.625 27.3417 22.3417 27.625 22 27.625Z" fill="#9D9EA7"/>
</svg>
