<svg width="43" height="43" viewBox="0 0 43 43" fill="none" xmlns="http://www.w3.org/2000/svg">
<circle opacity="0.1" cx="21.5" cy="21.5" r="21.5" fill="#777FFE"/>
<path d="M28.7 17.6834L23.9 14.325C22.5917 13.4084 20.5833 13.4584 19.325 14.4334L15.15 17.6917C14.3167 18.3417 13.6583 19.675 13.6583 20.725V26.475C13.6583 28.6 15.3833 30.3334 17.5083 30.3334H26.4917C28.6167 30.3334 30.3417 28.6084 30.3417 26.4834V20.8334C30.3417 19.7084 29.6167 18.325 28.7 17.6834ZM22.625 27C22.625 27.3417 22.3417 27.625 22 27.625C21.6583 27.625 21.375 27.3417 21.375 27V24.5C21.375 24.1584 21.6583 23.875 22 23.875C22.3417 23.875 22.625 24.1584 22.625 24.5V27Z" fill="#777FFE"/>
</svg>
