<svg width="24" height="25" viewBox="0 0 24 25" fill="none" xmlns="http://www.w3.org/2000/svg">
<path d="M16.3823 3.53008C15.4921 3.70597 14.688 4.32697 14.268 5.15975C14.0598 5.57615 14.0024 5.83101 13.9844 6.39816C13.9701 6.86122 13.9773 6.95455 14.0527 7.25248L14.1388 7.58631L13.9234 7.72272C12.9865 8.31141 9.27491 10.598 9.25696 10.598C9.24619 10.598 9.11697 10.5011 8.97339 10.3862C8.35957 9.88365 7.75652 9.66468 6.98834 9.66468C5.7643 9.66468 4.68024 10.3862 4.21359 11.5133C4.05206 11.901 3.99463 12.1989 3.99463 12.6799C3.99463 13.1574 4.05206 13.4589 4.21 13.843C4.68383 14.9773 5.75353 15.6916 6.98117 15.6952C7.75293 15.6952 8.35598 15.4762 8.97339 14.9737C9.11697 14.8588 9.24619 14.7619 9.25696 14.7619C9.27491 14.7619 12.9865 17.0485 13.9234 17.6372L14.1388 17.7736L14.0527 18.1074C13.9773 18.4053 13.9701 18.4987 13.9844 18.9617C13.9952 19.3709 14.0168 19.536 14.0814 19.7335C14.3973 20.717 15.1259 21.4457 16.1095 21.7616C16.4936 21.8836 17.2546 21.9052 17.6889 21.8011C18.7478 21.5498 19.5914 20.735 19.9037 19.6581C20.0114 19.2848 20.0185 18.4664 19.918 18.1002C19.6237 17.0341 18.7909 16.2049 17.7248 15.9249C17.3802 15.8316 16.569 15.8316 16.2351 15.9249C15.7398 16.0613 15.2911 16.3054 14.9249 16.6393L14.7419 16.8008L12.3045 15.2932C10.962 14.4604 9.86001 13.7784 9.85284 13.7748C9.84925 13.7712 9.88155 13.6384 9.92463 13.484C9.99283 13.2471 10.0072 13.1143 10.0072 12.6799C10.0072 12.2456 9.99283 12.1128 9.92463 11.8759C9.88155 11.7215 9.84925 11.5887 9.85284 11.5851C9.86001 11.5815 10.962 10.8995 12.3045 10.0667L14.7454 8.5555L14.8711 8.67396C15.2193 9.0042 15.7146 9.28419 16.1885 9.42059C16.5654 9.52828 17.3479 9.53546 17.7248 9.43495C18.6186 9.19804 19.3509 8.58422 19.7386 7.74784C19.9073 7.37812 19.9683 7.11608 19.9934 6.64943C20.0078 6.33355 20.0006 6.16484 19.9539 5.93151C19.7134 4.75054 18.8483 3.83879 17.7069 3.56239C17.3802 3.48701 16.6946 3.46906 16.3823 3.53008ZM17.5992 4.71823C17.8899 4.82592 18.2058 5.03053 18.3745 5.22795C19.0601 6.01766 19.0171 7.15197 18.2776 7.85912C17.5238 8.57345 16.3751 8.5555 15.6428 7.81246C15.3772 7.54683 15.2121 7.23094 15.1331 6.83968C15.0506 6.44483 15.1008 6.07869 15.2875 5.68742C15.5316 5.1777 16.0736 4.75054 16.612 4.64285C16.8848 4.58901 17.3335 4.62132 17.5992 4.71823ZM7.37961 10.8313C8.24829 11.0144 8.88365 11.7933 8.88365 12.6799C8.88365 13.6168 8.18009 14.4209 7.24321 14.5537C6.25966 14.6937 5.29406 13.9614 5.13612 12.9563C4.98894 11.9943 5.64943 11.0431 6.61503 10.8349C6.91655 10.7667 7.08167 10.7667 7.37961 10.8313ZM17.5274 17.0592C17.9402 17.1813 18.3135 17.4649 18.5719 17.8633C19.114 18.6889 18.8699 19.8699 18.0407 20.4191C17.2689 20.9288 16.3069 20.8355 15.6572 20.1858C15.2013 19.7299 15.0075 19.1161 15.1331 18.5202C15.2408 17.9961 15.5064 17.5869 15.9121 17.3141C16.4182 16.9767 16.953 16.8941 17.5274 17.0592Z" fill="#9D9EA7"/>
</svg>
