<svg width="24" height="25" viewBox="0 0 24 25" fill="none" xmlns="http://www.w3.org/2000/svg">
<path d="M12.9999 12.1094C12.8099 12.1094 12.6199 12.0394 12.4699 11.8894C12.1799 11.5994 12.1799 11.1194 12.4699 10.8294L20.6699 2.62937C20.9599 2.33937 21.4399 2.33937 21.7299 2.62937C22.0199 2.91937 22.0199 3.39937 21.7299 3.68937L13.5299 11.8894C13.3799 12.0394 13.1899 12.1094 12.9999 12.1094Z" fill="#DC251C"/>
<path d="M22 7.90938C21.59 7.90938 21.25 7.56938 21.25 7.15938V3.10938H17.2C16.79 3.10938 16.45 2.76937 16.45 2.35938C16.45 1.94938 16.79 1.60938 17.2 1.60938H22C22.41 1.60938 22.75 1.94938 22.75 2.35938V7.15938C22.75 7.56938 22.41 7.90938 22 7.90938Z" fill="#DC251C"/>
<path d="M15 23.1094H9C3.57 23.1094 1.25 20.7894 1.25 15.3594V9.35938C1.25 3.92938 3.57 1.60938 9 1.60938H11C11.41 1.60938 11.75 1.94938 11.75 2.35938C11.75 2.76937 11.41 3.10938 11 3.10938H9C4.39 3.10938 2.75 4.74937 2.75 9.35938V15.3594C2.75 19.9694 4.39 21.6094 9 21.6094H15C19.61 21.6094 21.25 19.9694 21.25 15.3594V13.3594C21.25 12.9494 21.59 12.6094 22 12.6094C22.41 12.6094 22.75 12.9494 22.75 13.3594V15.3594C22.75 20.7894 20.43 23.1094 15 23.1094Z" fill="#DC251C"/>
</svg>
