<svg width="43" height="43" viewBox="0 0 43 43" fill="none" xmlns="http://www.w3.org/2000/svg">
<path d="M22.12 23.53C22.1 23.53 22.07 23.53 22.05 23.53C22.02 23.53 21.98 23.53 21.95 23.53C19.68 23.46 17.98 21.69 17.98 19.51C17.98 17.29 19.79 15.48 22.01 15.48C24.23 15.48 26.04 17.29 26.04 19.51C26.03 21.7 24.32 23.46 22.15 23.53C22.13 23.53 22.13 23.53 22.12 23.53ZM22 16.97C20.6 16.97 19.47 18.11 19.47 19.5C19.47 20.87 20.54 21.98 21.9 22.03C21.93 22.02 22.03 22.02 22.13 22.03C23.47 21.96 24.52 20.86 24.53 19.5C24.53 18.11 23.4 16.97 22 16.97Z" fill="#9D9EA7"/>
<path d="M22 32.7499C19.31 32.7499 16.74 31.7499 14.75 29.9299C14.57 29.7699 14.49 29.5299 14.51 29.2999C14.64 28.1099 15.38 26.9999 16.61 26.1799C19.59 24.1999 24.42 24.1999 27.39 26.1799C28.62 27.0099 29.36 28.1099 29.49 29.2999C29.52 29.5399 29.43 29.7699 29.25 29.9299C27.26 31.7499 24.69 32.7499 22 32.7499ZM16.08 29.0999C17.74 30.4899 19.83 31.2499 22 31.2499C24.17 31.2499 26.26 30.4899 27.92 29.0999C27.74 28.4899 27.26 27.8999 26.55 27.4199C24.09 25.7799 19.92 25.7799 17.44 27.4199C16.73 27.8999 16.26 28.4899 16.08 29.0999Z" fill="#9D9EA7"/>
<path d="M22 32.75C16.07 32.75 11.25 27.93 11.25 22C11.25 16.07 16.07 11.25 22 11.25C27.93 11.25 32.75 16.07 32.75 22C32.75 27.93 27.93 32.75 22 32.75ZM22 12.75C16.9 12.75 12.75 16.9 12.75 22C12.75 27.1 16.9 31.25 22 31.25C27.1 31.25 31.25 27.1 31.25 22C31.25 16.9 27.1 12.75 22 12.75Z" fill="#9D9EA7"/>
</svg>
