<svg width="43" height="43" viewBox="0 0 43 43" fill="none" xmlns="http://www.w3.org/2000/svg">
<circle opacity="0.1" cx="21.5" cy="21.5" r="21.5" fill="#777FFE"/>
<path d="M32 22C32 16.49 27.51 12 22 12C16.49 12 12 16.49 12 22C12 24.9 13.25 27.51 15.23 29.34C15.23 29.35 15.23 29.35 15.22 29.36C15.32 29.46 15.44 29.54 15.54 29.63C15.6 29.68 15.65 29.73 15.71 29.77C15.89 29.92 16.09 30.06 16.28 30.2C16.35 30.25 16.41 30.29 16.48 30.34C16.67 30.47 16.87 30.59 17.08 30.7C17.15 30.74 17.23 30.79 17.3 30.83C17.5 30.94 17.71 31.04 17.93 31.13C18.01 31.17 18.09 31.21 18.17 31.24C18.39 31.33 18.61 31.41 18.83 31.48C18.91 31.51 18.99 31.54 19.07 31.56C19.31 31.63 19.55 31.69 19.79 31.75C19.86 31.77 19.93 31.79 20.01 31.8C20.29 31.86 20.57 31.9 20.86 31.93C20.9 31.93 20.94 31.94 20.98 31.95C21.32 31.98 21.66 32 22 32C22.34 32 22.68 31.98 23.01 31.95C23.05 31.95 23.09 31.94 23.13 31.93C23.42 31.9 23.7 31.86 23.98 31.8C24.05 31.79 24.12 31.76 24.2 31.75C24.44 31.69 24.69 31.64 24.92 31.56C25 31.53 25.08 31.5 25.16 31.48C25.38 31.4 25.61 31.33 25.82 31.24C25.9 31.21 25.98 31.17 26.06 31.13C26.27 31.04 26.48 30.94 26.69 30.83C26.77 30.79 26.84 30.74 26.91 30.7C27.11 30.58 27.31 30.47 27.51 30.34C27.58 30.3 27.64 30.25 27.71 30.2C27.91 30.06 28.1 29.92 28.28 29.77C28.34 29.72 28.39 29.67 28.45 29.63C28.56 29.54 28.67 29.45 28.77 29.36C28.77 29.35 28.77 29.35 28.76 29.34C30.75 27.51 32 24.9 32 22ZM26.94 26.97C24.23 25.15 19.79 25.15 17.06 26.97C16.62 27.26 16.26 27.6 15.96 27.97C14.44 26.43 13.5 24.32 13.5 22C13.5 17.31 17.31 13.5 22 13.5C26.69 13.5 30.5 17.31 30.5 22C30.5 24.32 29.56 26.43 28.04 27.97C27.75 27.6 27.38 27.26 26.94 26.97Z" fill="#777FFE"/>
<path d="M22 16.9299C19.93 16.9299 18.25 18.6099 18.25 20.6799C18.25 22.7099 19.84 24.3599 21.95 24.4199C21.98 24.4199 22.02 24.4199 22.04 24.4199C22.06 24.4199 22.09 24.4199 22.11 24.4199C22.12 24.4199 22.13 24.4199 22.13 24.4199C24.15 24.3499 25.74 22.7099 25.75 20.6799C25.75 18.6099 24.07 16.9299 22 16.9299Z" fill="#777FFE"/>
</svg>
