<svg width="24" height="25" viewBox="0 0 24 25" fill="none" xmlns="http://www.w3.org/2000/svg">
<path d="M12 16.0898C9.93 16.0898 8.25 14.4098 8.25 12.3398C8.25 10.2698 9.93 8.58984 12 8.58984C14.07 8.58984 15.75 10.2698 15.75 12.3398C15.75 14.4098 14.07 16.0898 12 16.0898ZM12 10.0898C10.76 10.0898 9.75 11.0998 9.75 12.3398C9.75 13.5798 10.76 14.5898 12 14.5898C13.24 14.5898 14.25 13.5798 14.25 12.3398C14.25 11.0998 13.24 10.0898 12 10.0898Z" fill="#9D9EA7"/>
<path d="M15.21 22.5299C15 22.5299 14.79 22.4999 14.58 22.4499C13.96 22.2799 13.44 21.8899 13.11 21.3399L12.99 21.1399C12.4 20.1199 11.59 20.1199 11 21.1399L10.89 21.3299C10.56 21.8899 10.04 22.2899 9.42 22.4499C8.79 22.6199 8.14 22.5299 7.59 22.1999L5.87 21.2099C5.26 20.8599 4.82 20.2899 4.63 19.5999C4.45 18.9099 4.54 18.1999 4.89 17.5899C5.18 17.0799 5.26 16.6199 5.09 16.3299C4.92 16.0399 4.49 15.8699 3.9 15.8699C2.44 15.8699 1.25 14.6799 1.25 13.2199V11.4599C1.25 9.99989 2.44 8.80989 3.9 8.80989C4.49 8.80989 4.92 8.63989 5.09 8.34989C5.26 8.05989 5.19 7.59989 4.89 7.08989C4.54 6.47989 4.45 5.75989 4.63 5.07989C4.81 4.38989 5.25 3.81989 5.87 3.46989L7.6 2.47989C8.73 1.80989 10.22 2.19989 10.9 3.34989L11.02 3.54989C11.61 4.56989 12.42 4.56989 13.01 3.54989L13.12 3.35989C13.8 2.19989 15.29 1.80989 16.43 2.48989L18.15 3.47989C18.76 3.82989 19.2 4.39989 19.39 5.08989C19.57 5.77989 19.48 6.48989 19.13 7.09989C18.84 7.60989 18.76 8.06989 18.93 8.35989C19.1 8.64989 19.53 8.81989 20.12 8.81989C21.58 8.81989 22.77 10.0099 22.77 11.4699V13.2299C22.77 14.6899 21.58 15.8799 20.12 15.8799C19.53 15.8799 19.1 16.0499 18.93 16.3399C18.76 16.6299 18.83 17.0899 19.13 17.5999C19.48 18.2099 19.58 18.9299 19.39 19.6099C19.21 20.2999 18.77 20.8699 18.15 21.2199L16.42 22.2099C16.04 22.4199 15.63 22.5299 15.21 22.5299ZM12 18.8299C12.89 18.8299 13.72 19.3899 14.29 20.3799L14.4 20.5699C14.52 20.7799 14.72 20.9299 14.96 20.9899C15.2 21.0499 15.44 21.0199 15.64 20.8999L17.37 19.8999C17.63 19.7499 17.83 19.4999 17.91 19.1999C17.99 18.8999 17.95 18.5899 17.8 18.3299C17.23 17.3499 17.16 16.3399 17.6 15.5699C18.04 14.7999 18.95 14.3599 20.09 14.3599C20.73 14.3599 21.24 13.8499 21.24 13.2099V11.4499C21.24 10.8199 20.73 10.2999 20.09 10.2999C18.95 10.2999 18.04 9.85989 17.6 9.08989C17.16 8.31989 17.23 7.30989 17.8 6.32989C17.95 6.06989 17.99 5.75989 17.91 5.45989C17.83 5.15989 17.64 4.91989 17.38 4.75989L15.65 3.76989C15.22 3.50989 14.65 3.65989 14.39 4.09989L14.28 4.28989C13.71 5.27989 12.88 5.83989 11.99 5.83989C11.1 5.83989 10.27 5.27989 9.7 4.28989L9.59 4.08989C9.34 3.66989 8.78 3.51989 8.35 3.76989L6.62 4.76989C6.36 4.91989 6.16 5.16989 6.08 5.46989C6 5.76989 6.04 6.07989 6.19 6.33989C6.76 7.31989 6.83 8.32989 6.39 9.09989C5.95 9.86989 5.04 10.3099 3.9 10.3099C3.26 10.3099 2.75 10.8199 2.75 11.4599V13.2199C2.75 13.8499 3.26 14.3699 3.9 14.3699C5.04 14.3699 5.95 14.8099 6.39 15.5799C6.83 16.3499 6.76 17.3599 6.19 18.3399C6.04 18.5999 6 18.9099 6.08 19.2099C6.16 19.5099 6.35 19.7499 6.61 19.9099L8.34 20.8999C8.55 21.0299 8.8 21.0599 9.03 20.9999C9.27 20.9399 9.47 20.7799 9.6 20.5699L9.71 20.3799C10.28 19.3999 11.11 18.8299 12 18.8299Z" fill="#9D9EA7"/>
</svg>
