<svg width="20" height="20" viewBox="0 0 20 20" fill="none" xmlns="http://www.w3.org/2000/svg">
<path d="M12.25 18.9583H7.74997C3.6333 18.9583 1.8833 17.2 1.8833 13.0917V9.35C1.8833 9.00833 2.16663 8.725 2.5083 8.725C2.84997 8.725 3.1333 9.00833 3.1333 9.35V13.0917C3.1333 16.5 4.34163 17.7083 7.74997 17.7083H12.2416C15.65 17.7083 16.8583 16.5 16.8583 13.0917V9.35C16.8583 9.00833 17.1416 8.725 17.4833 8.725C17.825 8.725 18.1083 9.00833 18.1083 9.35V13.0917C18.1166 17.2 16.3583 18.9583 12.25 18.9583Z" fill="white"/>
<path d="M10 10.625C9.08338 10.625 8.25004 10.2667 7.65837 9.60833C7.06671 8.95 6.79171 8.09166 6.88338 7.175L7.44171 1.60833C7.47504 1.29166 7.74171 1.04166 8.06671 1.04166H11.9584C12.2834 1.04166 12.55 1.28333 12.5834 1.60833L13.1417 7.175C13.2334 8.09166 12.9584 8.95 12.3667 9.60833C11.75 10.2667 10.9167 10.625 10 10.625ZM8.62504 2.29166L8.12504 7.3C8.06671 7.85833 8.23338 8.38333 8.58338 8.76666C9.29171 9.55 10.7084 9.55 11.4167 8.76666C11.7667 8.375 11.9334 7.85 11.875 7.3L11.375 2.29166H8.62504Z" fill="white"/>
<path d="M15.2584 10.625C13.5667 10.625 12.0584 9.25833 11.8834 7.575L11.3 1.73333C11.2834 1.55833 11.3417 1.38333 11.4584 1.25C11.575 1.11666 11.7417 1.04166 11.925 1.04166H14.4667C16.9167 1.04166 18.0584 2.06666 18.4 4.58333L18.6334 6.9C18.7334 7.88333 18.4334 8.81666 17.7917 9.525C17.15 10.2333 16.25 10.625 15.2584 10.625ZM12.6167 2.29166L13.1334 7.45C13.2417 8.49166 14.2084 9.375 15.2584 9.375C15.8917 9.375 16.4584 9.13333 16.8667 8.69166C17.2667 8.25 17.45 7.65833 17.3917 7.025L17.1584 4.73333C16.9 2.85 16.2917 2.29166 14.4667 2.29166H12.6167Z" fill="white"/>
<path d="M4.70002 10.625C3.70835 10.625 2.80835 10.2333 2.16668 9.525C1.52502 8.81666 1.22502 7.88333 1.32502 6.9L1.55002 4.60833C1.90002 2.06666 3.04168 1.04166 5.49168 1.04166H8.03335C8.20835 1.04166 8.37502 1.11666 8.50002 1.25C8.62502 1.38333 8.67502 1.55833 8.65835 1.73333L8.07502 7.575C7.90002 9.25833 6.39168 10.625 4.70002 10.625ZM5.49168 2.29166C3.66668 2.29166 3.05835 2.84166 2.79168 4.75L2.56668 7.025C2.50002 7.65833 2.69168 8.25 3.09168 8.69166C3.49168 9.13333 4.05835 9.375 4.70002 9.375C5.75002 9.375 6.72502 8.49166 6.82502 7.45L7.34168 2.29166H5.49168Z" fill="white"/>
<path d="M12.0833 18.9583H7.91663C7.57496 18.9583 7.29163 18.675 7.29163 18.3333V16.25C7.29163 14.5 8.24996 13.5417 9.99996 13.5417C11.75 13.5417 12.7083 14.5 12.7083 16.25V18.3333C12.7083 18.675 12.425 18.9583 12.0833 18.9583ZM8.54163 17.7083H11.4583V16.25C11.4583 15.2 11.05 14.7917 9.99996 14.7917C8.94996 14.7917 8.54163 15.2 8.54163 16.25V17.7083Z" fill="white"/>
</svg>
