<svg width="43" height="43" viewBox="0 0 43 43" fill="none" xmlns="http://www.w3.org/2000/svg">
<path d="M21 32.81C20.31 32.81 19.66 32.46 19.2 31.85L17.7 29.85C17.67 29.81 17.55 29.76 17.5 29.75H17C12.83 29.75 10.25 28.62 10.25 23V18C10.25 13.58 12.58 11.25 17 11.25H25C29.42 11.25 31.75 13.58 31.75 18V23C31.75 27.42 29.42 29.75 25 29.75H24.5C24.42 29.75 24.35 29.79 24.3 29.85L22.8 31.85C22.34 32.46 21.69 32.81 21 32.81ZM17 12.75C13.42 12.75 11.75 14.42 11.75 18V23C11.75 27.52 13.3 28.25 17 28.25H17.5C18.01 28.25 18.59 28.54 18.9 28.95L20.4 30.95C20.75 31.41 21.25 31.41 21.6 30.95L23.1 28.95C23.43 28.51 23.95 28.25 24.5 28.25H25C28.58 28.25 30.25 26.58 30.25 23V18C30.25 14.42 28.58 12.75 25 12.75H17Z" fill="#9D9EA7"/>
<path d="M26 18.75H16C15.59 18.75 15.25 18.41 15.25 18C15.25 17.59 15.59 17.25 16 17.25H26C26.41 17.25 26.75 17.59 26.75 18C26.75 18.41 26.41 18.75 26 18.75Z" fill="#9D9EA7"/>
<path d="M22 23.75H16C15.59 23.75 15.25 23.41 15.25 23C15.25 22.59 15.59 22.25 16 22.25H22C22.41 22.25 22.75 22.59 22.75 23C22.75 23.41 22.41 23.75 22 23.75Z" fill="#9D9EA7"/>
</svg>
