<svg width="43" height="43" viewBox="0 0 43 43" fill="none" xmlns="http://www.w3.org/2000/svg">
<circle opacity="0.1" cx="21.5" cy="21.5" r="21.5" fill="#777FFE"/>
<path d="M26 12H16C13.24 12 11 14.23 11 16.98V22.96V23.96C11 26.71 13.24 28.94 16 28.94H17.5C17.77 28.94 18.13 29.12 18.3 29.34L19.8 31.33C20.46 32.21 21.54 32.21 22.2 31.33L23.7 29.34C23.89 29.09 24.19 28.94 24.5 28.94H26C28.76 28.94 31 26.71 31 23.96V16.98C31 14.23 28.76 12 26 12ZM22 23.75H16C15.59 23.75 15.25 23.41 15.25 23C15.25 22.59 15.59 22.25 16 22.25H22C22.41 22.25 22.75 22.59 22.75 23C22.75 23.41 22.41 23.75 22 23.75ZM26 18.75H16C15.59 18.75 15.25 18.41 15.25 18C15.25 17.59 15.59 17.25 16 17.25H26C26.41 17.25 26.75 17.59 26.75 18C26.75 18.41 26.41 18.75 26 18.75Z" fill="#777FFE"/>
</svg>
